<?xml version="1.0" encoding="UTF-8"?>
<svg width="512pt" height="512pt" version="1.1" viewBox="0 0 512 512" xmlns="http://www.w3.org/2000/svg">
 <g>
  <path d="m298.07 241.8c-16.73-1.5195-30.414 12.672-29.402 29.402 1.0156 13.18 11.66 23.824 24.84 24.84 16.73 1.5195 30.414-12.672 29.402-29.402-1.0117-13.18-11.66-23.824-24.84-24.84z"/>
  <path d="m239.04 157.39c12.246 8.375 15.383 25.098 7.0039 37.344-8.375 12.246-25.098 15.387-37.344 7.0078-12.246-8.3789-15.387-25.098-7.0078-37.348 8.3789-12.246 25.098-15.383 37.348-7.0039"/>
  <path d="m434.44 150.05c-22.812-107.47-152.59-121.66-218.49-104.93-47.145 12.672-85.164 40.047-101.89 85.672-5.5781 14.195-4.0547 32.445-2.0273 47.652 1.5195 5.5781 2.5352 11.66 2.5352 17.742-0.50781 13.688-31.938 50.691-38.02 61.844-4.0547 7.6055-5.5781 13.688-2.0273 20.277 4.0547 7.0977 17.234 13.18 24.332 19.262 4.0547 3.5469 6.5898 8.6172 7.6055 14.195 4.0547 18.25 1.5195 20.277 1.5195 38.527 0 32.949 35.484 28.387 46.637 26.359 11.66-2.5352 37.512-5.0703 37.512 26.867v54.75c0 8.1094 6.5898 14.699 14.699 14.699h154.11c9.6328 0 17.234-8.1094 16.73-18.25-2.5352-27.883-5.5781-81.109 2.0273-109.5 13.184-52.719 77.562-87.191 54.754-195.17zm-147.01 11.66-2.5352-3.5469c-5.0703-6.5898 0.50781-16.223 8.6172-15.207l4.0547 0.50781c4.0547 0.50781 8.1094-2.0273 9.6328-5.5781l1.5195-4.0547c3.5469-7.6055 14.195-7.6055 17.742 0l1.5195 4.0547c1.5195 4.0547 5.5781 6.082 9.6328 5.5781l4.0547-0.50781c8.1094-1.0156 13.688 8.6172 8.6172 15.207l-2.5352 3.5469c-2.5352 3.5469-2.5352 8.1094 0 11.152l2.5352 3.5469c5.0703 6.5898-0.50781 16.223-8.6172 15.207l-4.0547-0.50781c-4.0547-0.50781-8.1094 2.0273-9.6328 5.5781l-1.5195 4.0547c-3.5469 7.6055-14.195 7.6055-17.742 0l-1.5195-4.0547c-1.5195-4.0547-5.5781-6.082-9.6328-5.5781l-4.0547 0.50781c-8.1094 1.0156-13.688-8.6172-8.6172-15.207l2.5352-3.5469c2.5352-3.043 2.5352-7.6055 0-11.152zm-62.352 66.914-4.0547-7.0977c-2.5352-4.0547-8.1094-5.5781-11.66-2.5352l-6.5898 5.0703c-6.082 4.5625-14.699-1.0156-12.672-8.6172l2.0273-8.1094c1.0156-4.5625-2.0273-9.6328-6.5898-10.137l-8.1133-1.5234c-7.6055-1.0156-9.6328-11.152-3.043-15.207l7.0977-4.0547c4.0547-2.5352 5.5781-8.1094 2.5352-11.66l-5.0703-6.5898c-4.5625-6.082 1.0156-14.699 8.6172-12.672l8.1094 2.0273c4.5625 1.0156 9.6328-2.0273 10.137-6.5898l1.5195-8.1094c1.0156-7.6055 11.152-9.6328 15.207-3.043l4.0547 7.0977c2.5352 4.0547 8.1094 5.5781 11.66 2.5352l6.5898-5.0703c6.082-4.5625 14.699 1.0156 12.672 8.6172l-2.0273 8.1094c-1.0156 4.5625 2.0273 9.6328 6.5898 10.137l8.1094 1.5195c7.6055 1.0156 9.6328 11.152 3.043 15.207l-7.0977 4.0547c-4.0547 2.5352-5.5781 8.1094-2.5352 11.66l5.0703 6.5898c4.5625 6.082-1.0156 14.699-8.6172 12.672l-8.1094-2.0273c-4.5625-1.0156-9.6328 2.0273-10.137 6.5898l-1.5195 8.1094c-1.0117 7.6094-11.148 9.6367-15.203 3.0469zm127.75 49.172-9.125 3.043c-5.0703 2.0273-7.6055 8.1094-5.5781 13.18l4.0547 8.6172c4.0547 8.1094-4.5625 16.73-12.672 12.672l-8.6172-4.0547c-5.0703-2.5352-11.152 0-13.18 5.5781l-3.043 9.125c-3.043 8.6172-14.699 8.6172-17.742 0l-3.0391-9.125c-2.0273-5.0703-8.1094-7.6055-13.18-5.5781l-8.6172 4.0547c-8.1094 4.0547-16.73-4.5625-12.672-12.672l4.0508-8.6172c2.5352-5.0703 0-11.152-5.5781-13.18l-9.125-3.043c-8.6172-3.043-8.6172-14.699 0-17.742l9.125-3.043c5.0703-2.0273 7.6055-8.1094 5.5781-13.18l-4.0547-8.6172c-4.0547-8.1094 4.5625-16.73 12.672-12.672l8.6172 4.0547c5.0703 2.5352 11.152 0 13.18-5.5781l3.043-9.125c3.043-8.6172 14.699-8.6172 17.742 0l3.043 9.125c2.0273 5.0703 8.1094 7.6055 13.18 5.5781l8.6172-4.0547c8.1094-4.0547 16.73 4.5625 12.672 12.672l-4.0547 8.6172c-2.5352 5.0703 0 11.152 5.5781 13.18l9.125 3.043c8.1094 3.043 8.1094 14.703 0 17.742z"/>
  <path d="m330.85 154.69c6.7344 6.7305 6.5703 17.805-0.35547 24.734-6.9297 6.9258-18.004 7.0859-24.734 0.35547-6.7305-6.7305-6.5703-17.805 0.35938-24.73 6.9297-6.9297 18-7.0898 24.73-0.35938"/>
 </g>
</svg>